<svg id="Layer_1" data-name="Layer 1" xmlns="http://www.w3.org/2000/svg" xmlns:xlink="http://www.w3.org/1999/xlink" viewBox="0 0 32 32"><defs><style>.cls-1{fill:none;clip-rule:evenodd;}.cls-2{clip-path:url(#clip-path);}.cls-3{fill:#f6f6f6;}</style><clipPath id="clip-path"><path class="cls-1" d="M550.29-13.43l4.38,2.52-4.38,4.31Zm0-2.92h15.5v1.65L558-10.25l-7.76-4.44Zm15.5,9.76-4.4-4.31,4.38-2.52v6.84ZM551-5.67l4.71-4.63,2,1.13a.7.7,0,0,0,.36.09.7.7,0,0,0,.36-.09l2-1.13,4.71,4.63Zm-2,.6A.08.08,0,0,0,549-5s0,0,0,.05,0,0,0,.05,0,0,0,.05l0,0s0,0,0,0l0,0h0s0,0,0,0a.4.4,0,0,0,.17.08h0l.19,0h16.77l.19,0h0l.17-.08s0,0,0,0h0l0,0s0,0,0,0l0,0s0,0,0-.05,0,0,0-.05,0,0,0-.05,0,0,0-.05v-11.8a.58.58,0,0,0-.64-.52H549.64a.58.58,0,0,0-.64.52V-5.12S549-5.09,549-5.07Z"/></clipPath></defs><title>logoArtboard 1 copy 2</title><path class="cls-3" d="M15.33,30.16,7.6,24.77a1.62,1.62,0,0,1-.67-1.14V4.6c0-.37.3-.45.67-.18l7.73,5.67A1.67,1.67,0,0,1,16,11.24V30C16,30.33,15.7,30.42,15.33,30.16Z"/><path class="cls-3" d="M19.81,23.3H7.93V4.93H19.81v6.69h2V4.76A1.83,1.83,0,0,0,20,2.93H7.76A1.83,1.83,0,0,0,5.93,4.76V23.47A1.83,1.83,0,0,0,7.76,25.3H20a1.83,1.83,0,0,0,1.83-1.83V16.61h-2Z"/><rect class="cls-3" x="19" y="13.5" width="6" height="1" rx="0.5" ry="0.5"/><path class="cls-3" d="M24.62,11.08l2.57,2.57a.49.49,0,0,1,0,.69l-2.57,2.57a.36.36,0,0,1-.62-.25V11.34A.36.36,0,0,1,24.62,11.08Z"/></svg>